<?xml version="1.0" encoding="utf-8"?>
<!-- Generator: Adobe Illustrator 23.1.1, SVG Export Plug-In . SVG Version: 6.00 Build 0)  -->
<svg version="1.1" xmlns="http://www.w3.org/2000/svg" xmlns:xlink="http://www.w3.org/1999/xlink" x="0px" y="0px"
	 viewBox="0 0 224.6 224.6" style="enable-background:new 0 0 224.6 224.6;" xml:space="preserve">
<style type="text/css">
	.st0{fill:none;}
	.st1{fill:none;stroke:#ED6B06;stroke-width:5.1798;stroke-miterlimit:10;}
	.st2{fill:#ED6B06;}
	.st3{fill:none;stroke:#F6AB6F;stroke-width:12;stroke-miterlimit:10;}
</style>
<g id="Calque_3">
</g>
<g id="Calque_1">
	<rect x="98.5" y="75.7" class="st0" width="6.9" height="9.2"/>
	<g>
		<g>
			<line class="st1" x1="80.5" y1="88" x2="95.2" y2="88"/>
			<line class="st1" x1="87.9" y1="80.6" x2="87.9" y2="95.3"/>
		</g>
		<g>
			<line class="st1" x1="110" y1="88" x2="124.8" y2="88"/>
			<line class="st1" x1="117.4" y1="80.6" x2="117.4" y2="95.3"/>
		</g>
		<rect x="99.2" y="86.6" class="st2" width="6.8" height="2.6"/>
		
			<rect x="84.5" y="101.3" transform="matrix(-1.836970e-16 1 -1 -1.836970e-16 190.5005 14.7586)" class="st2" width="6.8" height="2.6"/>
		
			<rect x="84.5" y="71.8" transform="matrix(-1.836970e-16 1 -1 -1.836970e-16 160.9711 -14.7708)" class="st2" width="6.8" height="2.6"/>
		<rect x="69.7" y="86.6" class="st2" width="6.8" height="2.6"/>
		<rect x="128.9" y="86.6" class="st2" width="6.8" height="2.6"/>
		<rect x="139.7" y="86.6" class="st2" width="6.8" height="2.6"/>
		
			<rect x="84.5" y="111.8" transform="matrix(-1.836970e-16 1 -1 -1.836970e-16 200.9506 25.2087)" class="st2" width="6.8" height="2.6"/>
		
			<rect x="84.5" y="122.4" transform="matrix(-1.836970e-16 1 -1 -1.836970e-16 211.6237 35.8818)" class="st2" width="6.8" height="2.6"/>
		
			<rect x="84.5" y="133.1" transform="matrix(-1.836970e-16 1 -1 -1.836970e-16 222.2969 46.555)" class="st2" width="6.8" height="2.6"/>
		
			<rect x="114" y="101.3" transform="matrix(-1.836970e-16 1 -1 -1.836970e-16 220.0262 -14.767)" class="st2" width="6.8" height="2.6"/>
		
			<rect x="114" y="71.8" transform="matrix(-1.836970e-16 1 -1 -1.836970e-16 190.4968 -44.2964)" class="st2" width="6.8" height="2.6"/>
		
			<rect x="114" y="111.8" transform="matrix(-1.836970e-16 1 -1 -1.836970e-16 230.4763 -4.3169)" class="st2" width="6.8" height="2.6"/>
		
			<rect x="114" y="122.4" transform="matrix(-1.836970e-16 1 -1 -1.836970e-16 241.1494 6.3562)" class="st2" width="6.8" height="2.6"/>
		
			<rect x="114" y="133.1" transform="matrix(-1.836970e-16 1 -1 -1.836970e-16 251.8225 17.0293)" class="st2" width="6.8" height="2.6"/>
	</g>
	<g>
		<g>
			<path class="st2" d="M79.9,169.7l9-8.9l7.6,7.7c0.5,0.5,1.1,0.8,1.9,0.8c0.7,0,1.3-0.3,1.8-0.7c1-1,1-2.6,0-3.7l-8.3-8.4
				l-2.8,2.7H56.6v-99h99v35.2l3.8-3.8l7.6,7.7c0.5,0.5,1.1,0.8,1.9,0.8c0.7,0,1.3-0.3,1.8-0.7c0.5-0.5,0.8-1.1,0.8-1.8
				c0-0.7-0.3-1.3-0.7-1.8l-7.6-7.7l8.8-8.6L189,96.9l-33.4,32.7v29.6h-30.2l-28.5,27.9L79.9,169.7z M100.9,157.3
				c0.5,0.5,1.1,0.8,1.9,0.8c0.7,0,1.3-0.3,1.8-0.7c0.5-0.5,0.8-1.1,0.8-1.8c0-0.7-0.3-1.3-0.7-1.8l-4.1-4.2l4.1-4.1l4.1,4.2
				c0.5,0.5,1.1,0.8,1.9,0.8c0.7,0,1.3-0.3,1.8-0.7c1-1,1-2.6,0-3.7l-4.1-4.2l4.1-4.1l7.6,7.7c0.5,0.5,1.1,0.8,1.9,0.8
				c0.7,0,1.3-0.3,1.8-0.7c1-1,1-2.6,0-3.7l-7.6-7.7l4.1-4.1l4,4.1c0.5,0.5,1.1,0.8,1.9,0.8c0.7,0,1.3-0.3,1.8-0.7
				c0.5-0.5,0.8-1.1,0.8-1.8s-0.3-1.3-0.7-1.8l-4-4.1l4.1-4.1l4.1,4.2c0.5,0.5,1.2,0.8,1.9,0.8c0.7,0,1.3-0.3,1.8-0.7
				c1-1,1-2.6,0-3.7l-4.1-4.2l4.1-4.1l7.6,7.7c0.5,0.5,1.1,0.8,1.9,0.8c0.7,0,1.3-0.3,1.8-0.7c1-1,1-2.6,0-3.7l-7.6-7.7l4.1-4.1
				l4.1,4.2c0.5,0.5,1.1,0.8,1.9,0.8c0.7,0,1.3-0.3,1.8-0.7c0.5-0.5,0.8-1.1,0.8-1.8c0-0.7-0.3-1.3-0.7-1.8l-4.1-4.2l1.7-1.6V66.7
				h-86v86h33.3L100.9,157.3z M132,152.7h17.1v-16.8L132,152.7z M150.9,98.6l4.8,4.9c0.5,0.5,1.1,0.8,1.9,0.8c0.7,0,1.3-0.3,1.8-0.7
				c1-1,1-2.6,0-3.7l-4.8-4.9L150.9,98.6z"/>
		</g>
		<g>
			<path class="st2" d="M155.1,60.7v33.5v0.6l-0.5-0.5l-0.7,0.7l-3,2.9l-0.7,0.7l0.7,0.7l4.5,4.6c0.6,0.6,1.4,0.9,2.2,0.9
				c0.8,0,1.6-0.3,2.2-0.9c0.6-0.6,0.9-1.4,0.9-2.2s-0.3-1.6-0.9-2.2l-3.8-3.9l0.8-0.8l2.6-2.6l7.2,7.4c0.6,0.6,1.4,0.9,2.2,0.9
				c0.8,0,1.6-0.3,2.2-0.9c1.2-1.2,1.2-3.2,0-4.4l-7.2-7.4l8-7.9l16.4,16.7l-32.9,32.2l-0.3,0.3v0.4v28.9h-29.5h-0.4l-0.3,0.3
				l-28,27.4l-16.4-16.7l8.3-8.2l7.2,7.4c0.6,0.6,1.4,0.9,2.2,0.9c0.8,0,1.6-0.3,2.2-0.9c0.6-0.6,0.9-1.4,0.9-2.2
				c0-0.8-0.3-1.6-0.9-2.2l-7.9-8.1l-0.7-0.7l-0.7,0.7l-2.3,2.2H57.1v-98H155.1 M62.6,153.2h1h32.6l4.4,4.5c0.6,0.6,1.4,0.9,2.2,0.9
				c0.8,0,1.6-0.3,2.2-0.9c0.6-0.6,0.9-1.4,0.9-2.2c0-0.8-0.3-1.6-0.9-2.2l-3.8-3.9l3.4-3.4l3.8,3.9c0.6,0.6,1.4,0.9,2.2,0.9
				c0.8,0,1.6-0.3,2.2-0.9c1.2-1.2,1.2-3.2,0-4.4l-3.8-3.9l3.4-3.4l7.2,7.4c0.6,0.6,1.4,0.9,2.2,0.9c0.8,0,1.6-0.3,2.2-0.9
				c0.6-0.6,0.9-1.4,0.9-2.2c0-0.8-0.3-1.6-0.9-2.2l-7.2-7.4l3.4-3.4l3.7,3.7c0.6,0.6,1.4,0.9,2.2,0.9c0.8,0,1.6-0.3,2.2-0.9
				c0.6-0.6,0.9-1.4,0.9-2.2c0-0.8-0.3-1.6-0.9-2.2l-3.7-3.7l3.4-3.4l3.8,3.9c0.6,0.6,1.4,0.9,2.2,0.9c0.8,0,1.6-0.3,2.2-0.9
				c1.2-1.2,1.2-3.2,0-4.4l-3.8-3.9l3.4-3.4l7.2,7.4c0.6,0.6,1.4,0.9,2.2,0.9c0.8,0,1.6-0.3,2.2-0.9c0.6-0.6,0.9-1.4,0.9-2.2
				c0-0.8-0.3-1.6-0.9-2.2l-7.2-7.4l3.4-3.4l3.8,3.9c0.6,0.6,1.4,0.9,2.2,0.9c0.8,0,1.6-0.3,2.2-0.9c0.6-0.6,0.9-1.4,0.9-2.2
				c0-0.8-0.3-1.6-0.9-2.2l-3.8-3.9l1.2-1.1l0.3-0.3v-0.4V67.2v-1h-1h-85h-1v1v85V153.2 M130.8,153.2h2.4h15.4h1v-1v-15.1v-2.4
				l-1.7,1.7l-15.4,15.1L130.8,153.2 M156.1,59.7h-100v100h33.2h0h0l2.6-2.5l7.9,8.1c0.8,0.8,0.8,2.2,0,3c-0.4,0.4-0.9,0.6-1.5,0.6
				c-0.5,0-1.1-0.2-1.5-0.6l-7.9-8.1l-9.8,9.6l17.8,18.1l28.7-28.1h30.5v-29.9l33.6-32.9l-17.8-18.1l-9.5,9.3l7.9,8.1
				c0.8,0.8,0.8,2.2,0,3c-0.4,0.4-0.9,0.6-1.5,0.6c-0.5,0-1.1-0.2-1.5-0.6l-7.9-8.1l-3.3,3.3V59.7L156.1,59.7z M63.6,152.2v-85h85
				v34.4l-1.9,1.8l4.5,4.6c0.8,0.8,0.8,2.2,0,3c-0.4,0.4-0.9,0.6-1.5,0.6c-0.5,0-1.1-0.2-1.5-0.6l-4.5-4.6l-4.9,4.8l7.9,8.1
				c0.8,0.8,0.8,2.1,0,3c-0.4,0.4-0.9,0.6-1.5,0.6c-0.5,0-1.1-0.2-1.5-0.6l-7.9-8.1l-4.8,4.8l4.5,4.6c0.8,0.8,0.8,2.2,0,3
				c-0.4,0.4-0.9,0.6-1.5,0.6c-0.5,0-1.1-0.2-1.5-0.6l-4.5-4.6l-4.8,4.8l4.4,4.5c0.8,0.8,0.8,2.2,0,3c-0.4,0.4-0.9,0.6-1.5,0.6
				c-0.5,0-1.1-0.2-1.5-0.6l-4.4-4.5l-4.8,4.8l7.9,8.1c0.8,0.8,0.8,2.2,0,3c-0.4,0.4-0.9,0.6-1.5,0.6c-0.5,0-1.1-0.2-1.5-0.6
				l-7.9-8.1l-4.9,4.8l4.5,4.6c0.8,0.8,0.8,2.1,0,3c-0.4,0.4-0.9,0.6-1.5,0.6c-0.5,0-1.1-0.2-1.5-0.6l-4.5-4.6l-4.9,4.8l4.5,4.6
				c0.8,0.8,0.8,2.1,0,3c-0.4,0.4-0.9,0.6-1.5,0.6c-0.5,0-1.1-0.2-1.5-0.6l-4.5-4.6l0.2-0.2H63.6L63.6,152.2z M157.6,103.8
				c-0.5,0-1.1-0.2-1.5-0.6l-4.5-4.6l3-2.9l4.5,4.6c0.8,0.8,0.8,2.1,0,3C158.7,103.6,158.1,103.8,157.6,103.8L157.6,103.8z
				 M133.2,152.2l15.4-15.1v15.1H133.2L133.2,152.2z"/>
		</g>
	</g>
</g>
<g id="cercle">
	<circle class="st3" cx="112.3" cy="112.3" r="106.3"/>
</g>
</svg>
