<?xml version="1.0" encoding="utf-8"?>
<!-- Generator: Adobe Illustrator 23.1.1, SVG Export Plug-In . SVG Version: 6.00 Build 0)  -->
<svg version="1.1" xmlns="http://www.w3.org/2000/svg" xmlns:xlink="http://www.w3.org/1999/xlink" x="0px" y="0px"
	 viewBox="0 0 224.6 224.6" style="enable-background:new 0 0 224.6 224.6;" xml:space="preserve">
<style type="text/css">
	.st0{fill:#ED6B06;}
	.st1{fill-rule:evenodd;clip-rule:evenodd;fill:#ED6B06;}
	.st2{fill:none;stroke:#F6AB6F;stroke-width:12;stroke-miterlimit:10;}
</style>
<g id="Calque_3">
</g>
<g id="Calque_1">
	<g>
		<path class="st0" d="M161.9,100h-31l-15.5,26.8l15.5,26.8h31l15.5-26.8L161.9,100z M153.1,138.3h-13.3l-6.7-11.5l6.7-11.6h13.3
			l6.7,11.6L153.1,138.3z"/>
		<path class="st1" d="M93.1,86.2L67,76.3v12.8L93.1,99V86.2z M93.1,64.4H67.1L67,64.6V67l26.1,9.8V64.4z M93.1,108.3L67,98.5v12.8
			l26.1,9.9V108.3z M93.1,137.2v-6.6L67,120.6v12.8l9.8,3.7H58.5h0h-3.9v16.4h51.2v-16.4H93.1z"/>
	</g>
</g>
<g id="cercle">
	<circle class="st2" cx="112.3" cy="112.3" r="106.3"/>
</g>
</svg>
