<?xml version="1.0" encoding="utf-8"?>
<!-- Generator: Adobe Illustrator 23.1.1, SVG Export Plug-In . SVG Version: 6.00 Build 0)  -->
<svg version="1.1" xmlns="http://www.w3.org/2000/svg" xmlns:xlink="http://www.w3.org/1999/xlink" x="0px" y="0px"
	 viewBox="0 0 224.6 224.6" style="enable-background:new 0 0 224.6 224.6;" xml:space="preserve">
<style type="text/css">
	.st0{fill:#FFFFFF;stroke:#F6AB6F;stroke-width:12;stroke-miterlimit:10;}
	.st1{fill:#ED6B06;}
</style>
<g id="Calque_3">
</g>
<g id="Calque_1">
</g>
<g id="cercle">
	<circle class="st0" cx="112.3" cy="112.3" r="106.3"/>
	<g>
		<path class="st1" d="M129.5,118.1c0.9-1.4,1.7-2.8,2.5-4.3c0.7-1.4,1.3-2.9,1.9-4.3l-8.6-6.7c0.3-1.3,0.6-2.6,0.8-3.9l10.6-2.9
			c0.1-3.3,0-6.5-0.6-9.7l-10.8-1.5c-0.3-1.3-0.8-2.5-1.2-3.8l7.7-7.8c-1.5-2.9-3.2-5.6-5.3-8.1l-10,4.1c-1-0.9-1.9-1.8-3-2.7
			l2.7-10.6c-1.4-0.9-2.8-1.7-4.3-2.5c-1.4-0.7-2.9-1.3-4.3-1.9l-6.6,8.6c-1.3-0.4-2.6-0.6-3.9-0.8L94,48.8c-3.3-0.1-6.5,0-9.7,0.6
			l-1.4,10.8c-1.3,0.4-2.6,0.8-3.8,1.2l-7.8-7.7c-2.9,1.5-5.6,3.3-8.1,5.3l4.1,10.1c-0.9,0.9-1.8,1.9-2.7,3L54,69.3
			c-0.9,1.4-1.7,2.8-2.5,4.3c-0.7,1.5-1.3,2.9-1.9,4.4l8.6,6.6c-0.4,1.3-0.6,2.6-0.9,3.9l-10.5,3c-0.2,3.2,0,6.5,0.6,9.7l10.8,1.5
			c0.3,1.3,0.8,2.5,1.2,3.8l-7.7,7.8c1.5,2.9,3.3,5.6,5.3,8.1l10.1-4.1c0.9,1,2,1.8,3,2.7l-2.7,10.6c1.4,0.9,2.8,1.7,4.4,2.5
			c1.4,0.7,2.8,1.3,4.3,1.9l6.6-8.6c1.3,0.4,2.6,0.6,3.9,0.8l3,10.6c3.2,0.2,6.5,0,9.6-0.6l1.5-10.8c1.2-0.3,2.5-0.8,3.7-1.2
			l7.8,7.7c2.9-1.4,5.6-3.3,8.1-5.3l-4.1-10c0.9-0.9,1.8-1.9,2.7-3L129.5,118.1z M81.4,114.8C69.9,109.1,65.2,95.1,71,83.6
			c5.7-11.5,19.7-16.2,31.2-10.4c11.5,5.7,16.2,19.7,10.4,31.2C106.9,115.8,92.9,120.5,81.4,114.8z"/>
		<path class="st1" d="M172.6,162.8c1-1,2-2.2,2.8-3.4c0.9-1.3,1.7-2.6,2.4-3.9l-6-6.4c0.4-1.5,0.8-2.9,0.9-4.5l8.3-3.2
			c0-3-0.5-6-1.5-8.9l-9.1-0.3c-0.6-1.3-1.4-2.6-2.3-3.7l3.6-8.4c-1-1-2.1-1.9-3.4-2.8c-1.2-0.9-2.6-1.7-3.9-2.4l-6.7,6.3
			c-1.4-0.4-2.8-0.8-4.3-1l-3.4-8.6c-2.9,0.1-5.9,0.6-8.7,1.6l-0.3,9.2c-1.3,0.7-2.6,1.4-3.8,2.3l-8.4-3.6c-0.9,1-1.8,2.1-2.6,3.2
			c-1,1.3-1.8,2.7-2.5,4.2l6.2,6.6c-0.5,1.5-0.9,2.9-1,4.4l-8.3,3.2c0.1,3,0.6,6,1.6,8.8l8.8,0.3c0.6,1.4,1.5,2.7,2.5,3.9l-3.5,8
			c1,1,2.1,1.8,3.2,2.7c1.3,1,2.7,1.8,4.2,2.5l6.3-5.9c1.5,0.5,3,0.9,4.6,1l3.2,8c3-0.1,6-0.6,8.9-1.6l0.3-8.6
			c1.4-0.7,2.7-1.5,3.9-2.5L172.6,162.8z M160.1,152.4c-5.9,5-14.6,4.2-19.6-1.6c-5-5.9-4.2-14.6,1.6-19.6c5.9-5,14.6-4.2,19.6,1.6
			C166.7,138.7,166,147.4,160.1,152.4z"/>
		<path class="st1" d="M119.4,170.6c0.5-0.9,0.8-1.8,1.1-2.7c0.3-1,0.6-2,0.7-3l-5.1-2.9c0-1-0.1-2-0.3-3l4.6-3.7
			c-0.6-1.9-1.6-3.7-2.7-5.3l-5.8,1.6c-0.7-0.7-1.4-1.3-2.2-1.9l0.6-6c-0.9-0.4-1.7-0.8-2.7-1.1c-1-0.3-2-0.6-2.9-0.7l-3,5.3
			c-1,0-1.9,0.1-2.9,0.3l-3.9-4.8c-1.8,0.6-3.6,1.6-5.2,2.7l1.6,5.9c-0.7,0.7-1.3,1.4-1.9,2.2l-6-0.6c-0.4,0.8-0.7,1.7-1,2.5
			c-0.4,1.1-0.6,2.1-0.7,3.1l5.2,2.9c0,1,0,2,0.2,3l-4.6,3.7c0.7,1.9,1.6,3.7,2.8,5.3l5.6-1.6c0.7,0.7,1.5,1.4,2.3,2l-0.6,5.8
			c0.8,0.4,1.7,0.7,2.6,1c1,0.4,2.1,0.6,3.1,0.8l2.8-5c1,0,2.1-0.1,3.1-0.3l3.6,4.5c1.9-0.6,3.7-1.6,5.3-2.8l-1.6-5.5
			c0.7-0.7,1.4-1.5,2-2.4L119.4,170.6z M109.4,166.5c-2.7,4.3-8.4,5.6-12.7,2.9c-4.3-2.7-5.6-8.4-2.9-12.7c2.7-4.3,8.4-5.6,12.7-2.9
			C110.8,156.5,112.1,162.2,109.4,166.5z"/>
	</g>
</g>
</svg>
