<?xml version="1.0" encoding="utf-8"?>
<!-- Generator: Adobe Illustrator 23.1.1, SVG Export Plug-In . SVG Version: 6.00 Build 0)  -->
<svg version="1.1" xmlns="http://www.w3.org/2000/svg" xmlns:xlink="http://www.w3.org/1999/xlink" x="0px" y="0px"
	 viewBox="0 0 224.6 224.6" style="enable-background:new 0 0 224.6 224.6;" xml:space="preserve">
<style type="text/css">
	.st0{fill:none;}
	.st1{fill:#ED6B06;}
	.st2{fill:none;stroke:#F6AB6F;stroke-width:12;stroke-miterlimit:10;}
</style>
<g id="Calque_3">
</g>
<g id="Calque_1">
	<rect x="97.9" y="74" class="st0" width="6.9" height="9.2"/>
	<g>
		<g>
			<path class="st1" d="M74.1,155.7c-8.5,0-15.5-6.9-15.5-15.5s6.9-15.5,15.5-15.5s15.5,6.9,15.5,15.5S82.6,155.7,74.1,155.7z
				 M74.1,132.8c-4.1,0-7.4,3.3-7.4,7.4c0,4.1,3.3,7.4,7.4,7.4c4.1,0,7.4-3.3,7.4-7.4C81.5,136.2,78.2,132.8,74.1,132.8z"/>
			<path class="st1" d="M144,155.7c-8.5,0-15.5-6.9-15.5-15.5s6.9-15.5,15.5-15.5s15.5,6.9,15.5,15.5S152.5,155.7,144,155.7z
				 M144,132.8c-4.1,0-7.4,3.3-7.4,7.4c0,4.1,3.3,7.4,7.4,7.4c4.1,0,7.4-3.3,7.4-7.4C151.4,136.2,148.1,132.8,144,132.8z"/>
			<path class="st1" d="M103.2,115.6V76.1c0-1.7-1.4-3.1-3.1-3.1H68.4c-1.1,0-2.1,0.6-2.6,1.5l-21.1,36.2v4.9h3
				c1.3,0,2.4,0.7,2.9,1.9l2.1,4.9c0.5,1.1-0.3,2.4-1.6,2.4h-6.4v10.9c0,1.6,1.3,2.9,2.9,2.9h6.5c1.4-9.8,9.8-17.3,20-17.3
				s18.6,7.5,20,17.3h30.3c1.4-9.8,9.8-17.3,20-17.3c10.2,0,18.6,7.5,20,17.3h4.5c3.1,0,5.6-2.5,5.6-5.6v-17.3H103.2z M89.6,105.7
				H58.6l14.6-25.5h16.4V105.7z"/>
		</g>
		<g>
			<g>
				
					<rect x="129.1" y="80.2" transform="matrix(0.7071 -0.7071 0.7071 0.7071 -16.7048 125.2104)" class="st1" width="27.3" height="5.1"/>
				<polygon class="st1" points="164.9,64.2 158.6,76.4 153,76.2 149.4,72.6 149.5,66.9 161.4,60.6 				"/>
				<path class="st1" d="M138.1,97.3l-12.4,12.4c-2.7,2.7-7,2.7-9.7,0l-0.1-0.1c-2.7-2.7-2.7-7,0-9.7l12.4-12.4L138.1,97.3z"/>
			</g>
			<g>
				<path class="st1" d="M131.8,84.2l6.3-6.3l-1.7-1.7c-1.6-1.6-2.3-3.8-2.3-6c0-2.7-1-5.4-3.1-7.5c-2.2-2.2-5-3.2-7.8-3.1
					c-1.2,0-1.8,1.5-0.9,2.4l2.2,2.2c1.5,1.5,1.5,3.9,0,5.3l-0.9,0.9c-1.5,1.5-3.9,1.5-5.3,0l-2.1-2.1c-0.9-0.9-2.4-0.3-2.4,0.9
					c-0.1,2.8,1,5.6,3.1,7.7c2.1,2.1,4.8,3.1,7.4,3.1c2.2,0,4.4,0.8,6,2.3L131.8,84.2z"/>
				<path class="st1" d="M162.9,94.7c-2.1-2.1-4.8-3.1-7.5-3.1c-2.2,0-4.4-0.7-6-2.3l-1.9-1.9l-6.3,6.3l1.9,1.9
					c1.6,1.6,2.3,3.7,2.3,6c0,2.7,1,5.4,3.1,7.4c2.1,2.1,4.9,3.2,7.7,3.1c1.2,0,1.8-1.5,0.9-2.4l-2.3-2.3c-1.5-1.5-1.5-3.9,0-5.3
					l0.9-0.9c1.5-1.5,3.9-1.5,5.3,0l2.3,2.3c0.9,0.9,2.4,0.3,2.4-0.9C166,99.7,165,96.9,162.9,94.7z"/>
			</g>
		</g>
	</g>
</g>
<g id="cercle">
	<circle class="st2" cx="112.3" cy="112.3" r="106.3"/>
</g>
</svg>
