<?xml version="1.0" encoding="utf-8"?>
<!-- Generator: Adobe Illustrator 23.1.1, SVG Export Plug-In . SVG Version: 6.00 Build 0)  -->
<svg version="1.1" xmlns="http://www.w3.org/2000/svg" xmlns:xlink="http://www.w3.org/1999/xlink" x="0px" y="0px"
	 viewBox="0 0 224.6 224.6" style="enable-background:new 0 0 224.6 224.6;" xml:space="preserve">
<style type="text/css">
	.st0{fill:#FFFFFF;stroke:#F6AB6F;stroke-width:12;stroke-miterlimit:10;}
	.st1{fill:#ED6B06;}
</style>
<g id="Calque_3">
</g>
<g id="cercle">
	<circle class="st0" cx="112.3" cy="112.3" r="106.3"/>
</g>
<g id="Calque_1">
	<g>
		<path class="st1" d="M110.3,113.8h-3.2c-4.4,4.2-10.1,7.4-16.4,7.4c-6.2,0-12-3.2-16.4-7.4h-0.7c-3.4,0-6.3,2.6-7.1,6.3l-8.1,29.8
			c-1.1,5.2,2.4,10.2,7.1,10.2h53c4.8,0,8.3-5.1,7.1-10.3l-8.4-29.8C116.6,116.3,113.6,113.8,110.3,113.8z"/>
		<path class="st1" d="M101.2,63.4c-0.7,2.2-2.5,6.2-7.2,10.8c3.6-5.9,3.4-10.7,2.8-13.4c-2.3-1-4.8-1.5-7.4-1.5
			c-3.4,0-6.6,0.9-9.5,2.5c-0.4,2.8-0.2,7.2,3,12.4c-4-3.9-5.9-7.3-6.8-9.6c-4.4,4-7.2,9.9-7.2,16.6c0,1.4,0.1,2.8,0.4,4.2
			c4.9,3.2,11.4,5.1,18.5,5.1c9,0,17-3.1,22-7.9c0-0.5,0-0.9,0-1.4C109.8,73.8,106.4,67.4,101.2,63.4z"/>
		<g>
			<path class="st1" d="M124.7,106.1c-7.4,0-13.5-6-13.5-13.5s6-13.5,13.5-13.5c7.4,0,13.5,6,13.5,13.5S132.1,106.1,124.7,106.1z
				 M124.7,84.1c-4.7,0-8.5,3.8-8.5,8.5s3.8,8.5,8.5,8.5c4.7,0,8.5-3.8,8.5-8.5S129.4,84.1,124.7,84.1z"/>
			<circle class="st1" cx="124.7" cy="92.6" r="4.7"/>
		</g>
		<path class="st1" d="M138.9,127c-5.5,0-10.1-4.5-10.1-10.1c0-5.5,4.5-10.1,10.1-10.1c5.5,0,10.1,4.5,10.1,10.1
			C148.9,122.5,144.4,127,138.9,127z M138.9,111.9c-2.8,0-5.1,2.3-5.1,5.1s2.3,5.1,5.1,5.1s5.1-2.3,5.1-5.1S141.7,111.9,138.9,111.9
			z"/>
		<circle class="st1" cx="138.9" cy="117" r="3.2"/>
		<path class="st1" d="M116.7,113.4l35.5-33.3l3.4,30.7L116.7,113.4z M148.3,90.6l-18,16.9l19.8-1.3L148.3,90.6z"/>
		<g>
			<path class="st1" d="M87.7,96.6c-5.3,0-10.3-1.1-14.6-3c0,0.3,0,0.5,0,0.8c0,12,7.8,21.7,17.4,21.7c9.6,0,17.4-9.7,17.4-21.7
				c0-1.3-0.1-2.7-0.3-3.9C102.6,94.2,95.5,96.6,87.7,96.6z"/>
		</g>
		<polygon class="st1" points="156.1,150.2 133.1,150.2 134.7,156.2 175.6,156.2 155.8,142.8 147.8,142.8 147.8,137.5 141.8,137.5 
			141.8,148.8 154,148.8 		"/>
		<polygon class="st1" points="111,71.1 111.9,77 163.3,69.6 163.3,134.2 128.9,134.2 130.5,140.2 169.3,140.2 169.3,62.7 		"/>
	</g>
</g>
</svg>
